Coordinates
version=1
nRows=5
nColumns=40
inDegrees=yes

Units are S.I. units (second, meters, Newtons, ...)
If the header above contains a line with 'inDegrees', this indicates whether rotational values are in degrees (yes) or radians (no).

endheader
time	pelvis_tilt	pelvis_list	pelvis_rotation	pelvis_tx	pelvis_ty	pelvis_tz	hip_flexion_r	hip_adduction_r	hip_rotation_r	knee_angle_r	knee_angle_r_beta	ankle_angle_r	subtalar_angle_r	mtp_angle_r	hip_flexion_l	hip_adduction_l	hip_rotation_l	knee_angle_l	knee_angle_l_beta	ankle_angle_l	subtalar_angle_l	mtp_angle_l	lumbar_extension	lumbar_bending	lumbar_rotation	arm_flex_r	arm_add_r	arm_rot_r	elbow_flex_r	pro_sup_r	wrist_flex_r	wrist_dev_r	arm_flex_l	arm_add_l	arm_rot_l	elbow_flex_l	pro_sup_l	wrist_flex_l	wrist_dev_l
     17.80000000000000071054	     39.13411474879153217898	    -11.02227893400720759587	    178.32360224321502073508	      0.34616823245278688370	      0.80726626396238132521	     -0.59002776683494417842	     84.68924569929117751599	    -10.20569486611558396305	      6.37033343434110221892	     52.12935595152402612484	      0.90982889829819579841	      7.74301968658689609981	      0.00000000000000000000	      0.00000000000000000000	     78.64917642719076695812	     -3.24176690620466079196	    -12.96963185506534976810	     50.74282714382053427471	      0.88562940543001855698	     11.23011068793501721075	      0.00000000000000000000	      0.00000000000000000000	    -29.39162215430762259416	     -7.82733520468887533639	     -5.58261541934715133095	     52.40165822109037208065	    -13.52290418594495235993	     42.42363332015144550269	     10.23613036294551292826	      5.57631259394410072616	      0.00000000000000000000	      0.00000000000000000000	     57.76877071227070814530	    -16.68400617747793290846	     40.73316925820795120217	     15.21197910856564305959	     87.69375871396012200876	      0.00000000000000000000	      0.00000000000000000000
     17.80499999999999971578	     39.12510317240455037791	    -11.00741536194868253062	    178.29672457872734980810	      0.34598189134339063511	      0.80878467995597380646	     -0.59001060875669819605	     84.44217839304590711436	    -10.25534741515054726335	      6.16103542851700325400	     51.75568611431612708884	      0.90330712932352674738	      7.63554657660850821799	      0.00000000000000000000	      0.00000000000000000000	     78.39584486797905071853	     -3.26339820278767822614	    -13.12324965832811152211	     50.36113247619315558268	      0.87896757674261538629	     11.13223766994846108958	      0.00000000000000000000	      0.00000000000000000000	    -29.17674479758173333721	     -7.81338963503153838275	     -5.54801048968777177350	     52.21779893804544769864	    -13.49277314721727805136	     42.43797603947711394312	     10.21870112261547625110	      5.57449150806783322309	      0.00000000000000000000	      0.00000000000000000000	     57.56906884366786414375	    -16.69143097242292839155	     40.84790267339698743854	     15.17873991457873472655	     87.70087049942401336011	      0.00000000000000000000	      0.00000000000000000000
     17.80999999999999872102	     39.13283461805692553526	    -10.98504962158646591774	    178.25133977724928513453	      0.34595354820084756042	      0.81056778991067057749	     -0.58996848155944658920	     84.12453389691447114274	    -10.25333700644529066892	      6.02310082955326375753	     51.20404990507135778444	      0.89367926119898510873	      7.40755403882501095580	      0.00000000000000000000	      0.00000000000000000000	     78.09409876057347332790	     -3.22755780019597171560	    -13.15187102674491725907	     49.78979721752755693842	      0.86899589534616727970	     10.91680553335416625771	      0.00000000000000000000	      0.00000000000000000000	    -28.97867884696495011099	     -7.79645293352709511936	     -5.49969497314019850620	     52.06383532835245375736	    -13.46597321256801649270	     42.50373648494561962252	     10.19461984158354006524	      5.57643065517407787723	      0.00000000000000000000	      0.00000000000000000000	     57.43955867221448841065	    -16.69285044108974602750	     41.02471764533022735577	     15.10799459221895801875	     87.70047337551156374502	      0.00000000000000000000	      0.00000000000000000000
     17.81500000000000127898	     39.06038188895840335135	    -10.98428655233893813659	    178.22381197007246100839	      0.34561256144832042114	      0.81161765577715305753	     -0.58993211369759324114	     83.93919510191400945587	    -10.26143080853214506476	      6.00303806627042302324	     51.09551528028734423970	      0.89178497464408745810	      7.34588668971167368937	      0.00000000000000000000	      0.00000000000000000000	     77.90810586751391042526	     -3.20386305744161559161	    -13.15311981158293086480	     49.68336954030728946918	      0.86713838196342374331	     10.85717614688569732095	      0.00000000000000000000	      0.00000000000000000000	    -28.74705902810261548552	     -7.79759611563858268113	     -5.46405181872584311265	     51.82013839444889669039	    -13.43733079447329181733	     42.52123573264380240744	     10.12981786502137637740	      5.56847490322906502058	      0.00000000000000000000	      0.00000000000000000000	     57.17259324222474958788	    -16.67453165496199574136	     41.09285597717715177168	     15.03523846184375400981	     87.71050001208848811984	      0.00000000000000000000	      0.00000000000000000000
     17.82000000000000028422	     39.01669663151833589154	    -10.92348296930672368887	    178.22125834429786550572	      0.34585235356419086195	      0.81444453853304932256	     -0.58987432283756890961	     83.31784459896672956347	    -10.26251911628085267125	      5.89891073047837455334	     50.05440341551020821953	      0.87361414472214848903	      6.81265915012146461294	      0.00000000000000000000	      0.00000000000000000000	     77.37171733672867901532	     -3.02375355039721016581	    -13.02458506861115594688	     48.64725114751576739991	      0.84905470456873988194	     10.35516795204512519035	      0.00000000000000000000	      0.00000000000000000000	    -28.73530504018583542347	     -7.72352302935932044647	     -5.44595345883217074601	     51.80678048090231158085	    -13.46393382142837680249	     42.98032990189580004881	     10.05598557573582318980	      5.58267491360252599009	      0.00000000000000000000	      0.00000000000000000000	     57.20852599578475405906	    -16.73293981147533671106	     41.78147220940158490521	     15.02223386379019309800	     87.68848386159524466166	      0.00000000000000000000	      0.00000000000000000000
